<svg width="256" height="135" viewBox="0 0 256 135" fill="none" xmlns="http://www.w3.org/2000/svg">
<path d="M94.846 110.687C92.7293 121.565 90.4949 130.717 89.221 131.854C86.0264 134.715 52.9241 144.691 47.9656 144.632C43.0071 144.593 13.7854 135.754 10.4144 131.854C10.0028 131.384 9.0817 127.797 7.98417 122.525V122.505C4.28 104.964 -1.59969 68.8047 1.55571 66.8252C5.67145 64.2578 40.8317 56.3203 52.4342 56.1635C64.0563 55.9871 98.1386 68.4127 99.9809 71.6269C101.078 73.5672 98.0993 94.0871 94.8655 110.668L94.846 110.687Z" fill="url(#paint0_linear_70_6023)"/>
<g style="mix-blend-mode:soft-light" opacity="0.5">
<path d="M1.55584 66.8252C-3.93182 69.7455 37.5001 83.3078 45.8295 83.3078C54.159 83.3078 98.707 72.5285 99.9614 71.6465C101.216 70.7646 63.8016 56.0851 51.6307 56.1831C39.4599 56.2811 3.20214 65.9433 1.55584 66.8252Z" fill="white"/>
</g>
<g style="mix-blend-mode:multiply" opacity="0.3">
<path d="M47.9852 144.633C43.1247 144.025 44.4379 87.9335 45.849 85.5816C47.2601 83.2298 96.2374 73.254 98.2169 73.7047C100.196 74.1555 90.9653 129.012 89.2407 131.835C87.516 134.657 50.2195 144.888 47.9852 144.613V144.633Z" fill="#912790"/>
</g>
<g style="mix-blend-mode:multiply" opacity="0.74">
<path d="M94.8459 110.688C92.7293 121.545 90.4949 130.718 89.221 131.854C86.0264 134.716 52.9241 144.691 47.9656 144.633C43.0071 144.593 13.7854 135.754 10.4144 131.854C10.0028 131.384 9.08166 127.797 7.98413 122.525C8.31731 123.035 9.88516 130.482 14.6673 132.991C16.7055 134.069 39.4793 142.281 47.3776 142.124C55.2955 141.987 83.7529 136.734 87.8687 130.247C91.906 123.917 94.7283 111.178 94.8263 110.668L94.8459 110.688Z" fill="#D45C29"/>
</g>
<g style="mix-blend-mode:multiply" opacity="0.5">
<path d="M47.9853 144.633C46.1822 140.928 62.8412 113.196 66.9569 110.707C71.0726 108.198 79.7353 105.239 82.4791 107.062C85.2229 108.884 89.2211 131.874 89.2211 131.874C89.2211 131.874 85.2818 109.433 83.3807 106.846L99.9809 72.1367C99.9809 72.1367 83.7727 104.102 83.0868 105.239C82.4008 106.376 75.2864 106.043 65.3498 109.806L46.4762 85.1503C46.4762 85.1503 46.0255 84.9935 45.8295 85.6011C45.6531 86.2086 62.7628 106.141 62.8216 110.707C62.8804 115.274 47.1426 138.577 46.4567 140.634C45.7707 142.692 47.9461 144.652 47.9461 144.652L47.9853 144.633Z" fill="#D45C29"/>
</g>
<path d="M65.3302 112.216C64.7422 114.294 81.0876 108.296 82.4791 107.062C83.8706 105.827 70.759 106.415 65.3302 112.216Z" fill="#FDFF6D"/>
<g style="mix-blend-mode:multiply" opacity="0.2">
<path d="M51.4349 140.164C51.4349 140.164 62.3317 115.509 67.1922 113.372C72.0527 111.236 81.6561 108.473 83.4788 109.178C85.3015 109.884 88.9665 129.894 88.3589 131.638C87.7513 133.383 63.9389 141.83 56.6286 142.751C49.3182 143.672 51.4545 140.164 51.4545 140.164H51.4349Z" fill="#912790"/>
</g>
<path d="M17.0195 75.6251C17.0195 75.6251 39.9108 84.7974 44.0266 85.2481C48.1423 85.6989 93.7292 74.41 96.5318 73.1557C99.3344 71.9014 99.7068 71.7642 99.7068 71.7642C99.7068 71.7642 54.6296 82.7787 46.4177 82.0535C32.3262 80.8188 17.0195 75.6251 17.0195 75.6251Z" fill="#FFFB92"/>
<path d="M39.8127 83.7388C42.9877 84.3072 44.2224 125.406 44.5556 126.758C44.8888 128.13 43.3798 92.7347 45.8492 85.5811L39.8127 83.7192V83.7388Z" fill="#FFFB92"/>
<path d="M40.5963 84.3859C35.5986 81.4069 56.1577 81.8772 56.7653 82.4064C57.3728 82.9356 44.1436 87.5217 40.5963 84.3859Z" fill="#FFFED6"/>
<g style="mix-blend-mode:multiply" opacity="0.2">
<path d="M2.14367 73.7048C2.81003 69.7067 32.8158 83.563 37.9703 93.4408C43.1248 103.299 43.7323 135.147 42.8308 138.792C41.9292 142.438 15.4905 135.402 11.5512 128.052C7.61182 120.703 0.908945 81.1915 2.14367 73.7048Z" fill="#C68EC5"/>
</g>
<path d="M34.5407 141.516C34.5407 141.516 32.1301 142.555 30.6602 142.34C29.1902 142.124 21.1938 140.674 20.3903 139.792C19.5867 138.91 7.90591 76.6249 9.6502 72.7835C11.3945 68.9422 43.9284 64.2581 45.8687 64.8264C47.809 65.3948 51.4544 67.4527 51.4544 67.4527C51.4544 67.4527 27.8379 74.9786 25.2116 77.2717C22.5854 79.5451 31.1501 140.066 31.2677 140.517C31.3853 140.968 34.5799 141.536 34.5799 141.536L34.5407 141.516Z" fill="url(#paint1_linear_70_6023)"/>
<path d="M60.6655 141.928C60.6655 141.928 64.3501 142.79 65.3104 142.908C66.2707 143.026 77.1088 139.713 78.4807 138.792C79.8526 137.871 85.3207 79.5451 84.8699 75.9978C84.4192 72.4504 52.3163 64.8264 51.1208 64.7677C49.9252 64.7089 46.6131 65.3948 45.0256 66.6491C43.4381 67.9035 66.7214 76.3505 68.3089 79.6627C69.916 82.9749 65.8591 140.125 65.2908 140.537C64.7224 140.929 60.6459 141.948 60.6459 141.948L60.6655 141.928Z" fill="url(#paint2_linear_70_6023)"/>
<path d="M47.025 68.3344C43.4384 67.3153 21.7425 61.2789 21.7425 61.2789L15.3142 62.6312C15.3142 62.6312 16.2549 59.7894 16.9997 59.4366C17.7444 59.1034 33.5019 55.5364 36.3633 56.1832C39.2247 56.8104 54.1786 66.9821 54.1786 66.9821L47.025 68.3344Z" fill="url(#paint3_linear_70_6023)"/>
<path d="M84.9095 64.4342C84.9095 64.4342 84.8899 63.0623 84.4195 62.2391C83.9491 61.416 70.1515 57.5158 68.7796 57.3982C67.4077 57.2806 45.8491 65.5121 45.8491 65.5121C45.8491 65.5121 49.3965 67.08 51.8463 67.4328C54.2962 67.7856 81.0093 63.1015 81.5777 63.1015C82.146 63.1015 84.9095 64.4342 84.9095 64.4342Z" fill="url(#paint4_linear_70_6023)"/>
<g style="mix-blend-mode:multiply" opacity="0.74">
<path d="M69.0735 141.869C69.0735 141.869 70.5826 82.5041 72.464 80.6422C74.3455 78.7608 82.3223 78.3492 83.4394 78.506C84.5566 78.6628 78.9317 137.028 78.1281 138.165C77.3246 139.301 69.0735 141.869 69.0735 141.869Z" fill="#CA2790"/>
</g>
<g style="mix-blend-mode:multiply" opacity="0.74">
<path d="M34.5402 141.517C34.5402 141.517 30.8752 142.379 29.8169 142.203C28.7585 142.026 21.2131 80.5252 21.8206 77.1346C22.4282 73.744 47.6322 68.6875 47.6322 68.6875C47.6322 68.6875 66.4862 76.5466 68.1521 77.9185C69.818 79.2904 68.6617 86.5224 68.6617 86.5224C68.6617 86.5224 67.9561 80.5644 66.5646 79.1924C65.1731 77.8205 54.1586 72.0585 48.8277 72.2937C45.5743 72.4309 42.4973 77.8205 37.8916 79.4668C34.9517 80.5252 27.7002 77.213 26.6615 78.9181C23.9961 83.3278 31.6788 140.419 32.2863 140.87C32.8939 141.321 34.501 141.536 34.501 141.536L34.5402 141.517Z" fill="#E8812D"/>
</g>
<g style="mix-blend-mode:soft-light">
<path d="M10.5711 72.1169C9.80671 73.9396 18.8613 75.7035 20.8408 75.5467C22.8203 75.3899 44.4377 69.1967 44.9669 68.3344C45.4961 67.472 36.1474 66.1001 33.286 66.1785C30.4246 66.2569 13.1581 70.3139 10.5711 72.1169Z" fill="white"/>
</g>
<g style="mix-blend-mode:multiply" opacity="0.74">
<path d="M51.6697 70.608C51.6697 70.608 69.5242 72.3523 80.7151 70.8628C91.906 69.3537 85.8892 64.7676 85.8892 64.7676L48.7495 69.2557L51.6893 70.6276L51.6697 70.608Z" fill="#E8812D"/>
</g>
<path opacity="0.5" d="M9.63038 72.7638C8.65044 72.8814 16.2156 75.6448 18.1559 76.0956C20.0962 76.5464 20.3313 77.1148 21.6444 76.3112C22.9576 75.5077 10.6103 72.6266 9.63038 72.7442V72.7638Z" fill="white"/>
<path opacity="0.5" d="M71.5232 79.1922C67.9758 78.6238 80.3035 76.3504 82.5966 76.174C84.8896 75.9976 79.6959 80.5053 71.5232 79.1922Z" fill="white"/>
<g style="mix-blend-mode:multiply" opacity="0.4">
<path d="M10.5122 76.3502C10.8062 74.2923 20.39 78.5256 21.174 79.7799C21.9579 81.0147 25.2897 118.488 24.8193 120.526C24.3685 122.584 16.6662 121.976 16.4115 120.526C16.1371 119.075 10.2378 78.2904 10.5122 76.3502Z" fill="#C68EC5"/>
</g>
<g style="mix-blend-mode:multiply" opacity="0.74">
<path d="M60.6658 141.928C60.6658 141.928 63.39 140.321 64.0759 139.243C64.7619 138.184 68.7012 86.5024 68.7012 86.5024C68.7012 86.5024 66.6237 138.106 65.7418 140.458C64.8598 142.829 60.6658 141.928 60.6658 141.928Z" fill="#CA2790"/>
</g>
<path d="M53.3752 68.3543C53.3752 68.3543 53.3555 68.3543 53.3359 68.3543C53.3359 68.3543 53.0615 68.3543 52.7284 68.4718C52.5912 68.511 52.3953 68.5894 52.1993 68.6678C48.1031 70.3141 34.4231 77.3893 32.0517 77.8205C31.4833 77.9381 30.2486 77.7421 28.6219 77.3697C22.3503 75.9782 10.3754 71.882 9.49345 70.8825C8.37632 69.6086 -1.12903 45.3453 10.5322 42.4839C17.8034 40.7004 27.8184 49.363 35.5207 56.007C40.1656 60.0248 43.9873 63.3174 45.8688 63.1606C45.8688 63.1606 48.7106 65.0617 50.9057 66.5512C51.2585 66.7864 51.6113 67.0411 51.9249 67.2567C52.3756 67.5507 52.7676 67.8447 53.0224 68.0211C53.2576 68.1975 53.3948 68.3151 53.3948 68.3543H53.3752Z" fill="url(#paint5_linear_70_6023)"/>
<g style="mix-blend-mode:multiply" opacity="0.5">
<path d="M31.8749 76.3504C27.8376 77.9183 25.1721 56.9476 25.9364 53.5766C26.7008 50.2056 40.028 67.3349 48.2987 67.4525C56.5694 67.5701 32.7569 76.0172 31.8749 76.3504Z" fill="#912790"/>
</g>
<g style="mix-blend-mode:multiply" opacity="0.74">
<path d="M53.3751 67.4527L53.0027 68.0406L52.9244 68.1582L52.7283 68.4718L52.1992 68.6678C48.1031 70.3141 34.4231 77.3892 32.0516 77.8204C31.4833 77.938 30.2485 77.742 28.6218 77.3696C25.682 71.392 19.0381 45.9724 28.1711 51.7344C30.4054 53.1456 32.9336 54.5959 35.5207 56.007C40.1656 60.0247 43.9873 63.3173 45.8688 63.1605C45.8688 63.1605 48.7106 65.0616 50.9057 66.5511C49.6317 65.1988 48.9263 63.7289 48.7891 63.4349C50.6314 64.5716 52.062 65.6104 52.8068 66.4531C53.1596 66.8451 53.3556 67.1783 53.4144 67.4723L53.3751 67.4527Z" fill="#CA2790"/>
</g>
<path d="M83.9488 65.9043C81.5186 68.4325 56.3342 69.6476 53.2572 68.6873C53.022 68.6089 52.7869 68.5109 52.5713 68.3933C52.5713 68.3933 52.5517 68.3933 52.5321 68.3933C52.4145 68.3345 52.3165 68.2757 52.1989 68.2169C51.8853 68.0209 51.5913 67.7857 51.2973 67.5702C51.0033 67.2958 50.7485 67.0214 50.5133 66.747C49.455 65.5123 48.8671 64.1208 48.7691 63.866C48.7691 63.8268 48.7495 63.8268 48.7495 63.8268C51.0034 63.7876 59.8228 38.9363 62.8018 36.3297C65.624 33.8799 84.7132 34.7618 92.4155 38.4464C93.2583 38.8384 93.9247 39.2499 94.4146 39.7203C99.5691 44.5024 86.4771 63.3368 83.9488 65.9435V65.9043Z" fill="url(#paint6_linear_70_6023)"/>
<g style="mix-blend-mode:multiply" opacity="0.5">
<path d="M53.2771 67.1194C53.2771 67.1194 62.1945 64.748 69.6813 60.9458C80.8722 55.2622 86.2618 43.5421 90.9459 43.0129C95.8064 42.4642 88.4765 62.6313 79.559 65.3752C71.4255 67.8838 53.2771 67.1194 53.2771 67.1194Z" fill="#912790"/>
</g>
<g style="mix-blend-mode:multiply" opacity="0.74">
<path d="M83.9489 65.9043C81.5186 68.4326 56.3342 69.6477 53.2572 68.6873C53.0221 68.6089 52.7869 68.511 52.5713 68.3934C52.5713 68.3934 52.5517 68.3934 52.5321 68.3934C52.5321 68.3934 52.2969 68.3934 52.0225 68.511L51.6697 69.0989L51.5718 68.7069L51.2974 67.5702C51.2974 67.5702 51.317 67.4526 51.3562 67.3938C51.4542 67.1194 51.7089 66.8647 52.1009 66.6099C55.0799 64.5912 66.3296 62.2393 73.5812 55.2818C83.0278 46.1879 86.144 39.3088 92.4156 38.4072C93.2583 38.7992 93.9247 39.2108 94.4147 39.6811C99.5692 44.4633 86.4771 63.2977 83.9489 65.9043Z" fill="#CA2790"/>
</g>
<path d="M44.5554 62.8664C44.5554 62.8664 51.513 61.0829 55.6092 62.8664C59.7053 64.6499 58.8037 67.7269 58.3529 69.0792C57.9021 70.4315 49.6903 69.7456 49.6903 69.7456C49.6903 69.7456 50.1803 68.1777 49.4944 65.9434C48.8084 63.7287 44.5554 62.8664 44.5554 62.8664Z" fill="url(#paint7_linear_70_6023)"/>
<path opacity="0.3" d="M45.8491 62.5923C45.8491 62.5923 50.298 64.8069 50.984 65.3361C51.6699 65.8457 57.2163 64.6501 57.3731 64.3757C57.5299 64.1014 54.3941 62.2591 51.4347 62.2395C48.4753 62.2199 45.8491 62.6119 45.8491 62.6119V62.5923Z" fill="white"/>
<g style="mix-blend-mode:multiply" opacity="0.74">
<path d="M51.3364 62.4745C51.3364 62.4745 55.9421 52.5967 59.7246 45.1687C63.8208 37.1136 78.5983 40.7394 78.3044 47.109C78.0104 53.263 60.4107 62.5921 57.7256 63.0036C55.119 63.3956 51.3364 62.4745 51.3364 62.4745Z" fill="#CA2790"/>
</g>
<g style="mix-blend-mode:multiply" opacity="0.74">
<path d="M24.8782 75.7819C27.916 75.7819 20.6056 52.6358 14.53 48.6768C8.43478 44.7179 6.29848 48.1869 5.55373 50.8719C4.80897 53.5569 9.08156 69.9807 10.5123 71.4702C11.9626 72.9793 24.8782 75.7623 24.8782 75.7623V75.7819Z" fill="#CA2790"/>
</g>
<g style="mix-blend-mode:multiply" opacity="0.74">
<path d="M54.1591 62.984C54.1591 62.984 58.6668 62.0041 61.0186 59.1231C63.4489 56.1245 62.1357 46.6778 60.3718 47.0306C58.6275 47.3834 51.3564 62.4745 51.3564 62.4745L54.1787 62.9644L54.1591 62.984Z" fill="#CA2790"/>
</g>
<path opacity="0.3" d="M6.61249 45.0313C5.69134 46.7168 16.9018 46.8344 19.528 50.4798C22.1543 54.1251 23.7026 50.8718 25.8193 50.4798C27.9359 50.0878 18.1169 43.5222 12.8056 43.4046C7.49438 43.287 6.6321 45.0313 6.6321 45.0313H6.61249Z" fill="white"/>
<path opacity="0.3" d="M61.0966 39.7596C60.2147 41.2099 70.2297 38.2505 75.2078 40.7199C80.3427 43.2482 85.0072 41.0923 86.9474 39.152C88.9465 37.1529 65.3888 32.7628 61.0966 39.7596Z" fill="white"/>
<g style="mix-blend-mode:multiply" opacity="0.74">
<path d="M78.0891 54.8895C73.503 59.554 80.7742 64.7477 82.0677 64.3949C83.3808 64.0225 92.8274 52.6944 91.7691 46.266C90.6912 39.7005 86.497 46.3444 78.0891 54.8895Z" fill="#CA2790"/>
</g>
<g style="mix-blend-mode:multiply" opacity="0.74">
<path d="M26.8577 65.4535C27.2496 67.237 44.7318 67.6878 45.8489 67.4526C46.9464 67.1978 38.2053 63.3956 33.188 58.1431C28.1708 52.8907 26.3873 52.8123 25.9561 53.5766C25.5053 54.341 26.5636 64.1012 26.8772 65.4535H26.8577Z" fill="#CA2790"/>
</g>
<path d="M2.84936 93.4799C2.84936 93.4799 0.556303 75.8606 1.98701 71.4704C3.41773 67.0803 5.0248 65.4536 5.0248 65.4536C5.0248 65.4536 2.00655 65.9436 1.06581 66.9039C0.125068 67.8643 0.125034 73.6263 2.86886 93.4799H2.84936Z" fill="#FFFB92"/>
<path d="M1.06592 67.6095C1.14431 69.0206 2.47702 69.295 2.771 69.001C3.06498 68.707 4.12332 66.1592 4.12332 66.1592C4.12332 66.1592 1.00714 66.316 1.08554 67.6095H1.06592Z" fill="#FFFED6"/>
<g filter="url(#filter0_d_70_6023)">
<path d="M166.732 96.7726C164.027 110.671 161.172 122.366 159.545 123.819C155.463 127.475 113.166 140.221 106.83 140.146C100.494 140.096 63.156 128.802 58.8487 123.819C58.3228 123.217 57.1458 118.635 55.7435 111.898V111.873C51.0355 89.4602 43.4977 43.2568 47.5295 40.7275C52.7884 37.447 97.7147 27.3048 112.54 27.1044C127.39 26.879 170.939 42.756 173.293 46.8629C174.695 49.3422 170.889 75.5616 166.757 96.7476L166.732 96.7726Z" fill="url(#paint8_linear_70_6023)"/>
<g style="mix-blend-mode:soft-light" opacity="0.5">
<path d="M47.5545 40.7276C40.5426 44.4589 93.4824 61.7883 104.125 61.7883C114.769 61.7883 171.69 48.015 173.293 46.8881C174.896 45.7611 127.089 27.0043 111.538 27.1295C95.9866 27.2547 49.658 39.6257 47.5545 40.7276Z" fill="white"/>
</g>
<g style="mix-blend-mode:multiply" opacity="0.3">
<path d="M106.855 140.146C100.645 139.37 102.322 67.6983 104.125 64.6932C105.928 61.6881 168.51 48.9415 171.039 49.5175C173.568 50.0934 161.773 120.187 159.569 123.793C157.366 127.4 109.71 140.472 106.855 140.121V140.146Z" fill="#912790"/>
</g>
<g style="mix-blend-mode:multiply" opacity="0.74">
<path d="M166.732 96.7726C164.027 110.646 161.172 122.366 159.545 123.818C155.463 127.475 113.166 140.221 106.83 140.146C100.494 140.096 63.156 128.802 58.8487 123.818C58.3228 123.217 57.1458 118.635 55.7434 111.898C56.1691 112.549 58.1725 122.066 64.2829 125.271C66.8873 126.648 95.9867 137.141 106.079 136.941C116.196 136.765 152.558 130.054 157.817 121.765C162.975 113.676 166.581 97.3987 166.707 96.7476L166.732 96.7726Z" fill="#CA2790"/>
</g>
<g style="mix-blend-mode:multiply" opacity="0.5">
<path d="M106.855 140.146C104.551 135.413 125.837 99.9782 131.096 96.7978C136.355 93.5923 147.424 89.8109 150.93 92.1399C154.436 94.4688 159.544 123.844 159.544 123.844C159.544 123.844 154.511 95.17 152.082 91.8644L173.293 47.5142C173.293 47.5142 152.583 88.3585 151.706 89.8109C150.83 91.2634 141.739 90.8377 129.043 95.6458L104.927 64.1424C104.927 64.1424 104.351 63.942 104.1 64.7184C103.875 65.4947 125.737 90.9629 125.812 96.7978C125.887 102.633 105.778 132.408 104.902 135.038C104.025 137.667 106.83 140.171 106.83 140.171L106.855 140.146Z" fill="#CA2790"/>
</g>
<path d="M129.018 98.726C128.267 101.381 149.152 93.7175 150.93 92.1399C152.708 90.5622 135.955 91.3134 129.018 98.726Z" fill="#6D8EFF"/>
<g style="mix-blend-mode:multiply" opacity="0.2">
<path d="M111.262 134.436C111.262 134.436 125.186 102.933 131.396 100.203C137.607 97.4737 149.878 93.9427 152.207 94.8443C154.536 95.7458 159.219 121.314 158.442 123.543C157.666 125.772 127.214 136.565 117.899 137.742C108.583 138.919 111.287 134.436 111.287 134.436H111.262Z" fill="#912790"/>
</g>
<path d="M67.2876 51.9715C67.2876 51.9715 96.5372 63.6913 101.796 64.2673C107.055 64.8433 165.304 50.4188 168.885 48.8161C172.466 47.2134 172.942 47.0381 172.942 47.0381C172.942 47.0381 115.344 61.112 104.851 60.1854C86.8458 58.6077 67.2876 51.9715 67.2876 51.9715Z" fill="#C992FF"/>
<path d="M96.4124 62.3395C100.469 63.0657 102.047 115.58 102.473 117.308C102.898 119.061 100.97 73.834 104.125 64.6935L96.4124 62.3145V62.3395Z" fill="#C992FF"/>
<path d="M97.4136 63.1656C91.0278 59.3591 117.297 59.9602 118.074 60.6363C118.85 61.3124 101.946 67.1724 97.4136 63.1656Z" fill="#EDD6FF"/>
<g style="mix-blend-mode:multiply" opacity="0.2">
<path d="M48.2804 49.5175C49.1319 44.4089 87.4719 62.1139 94.0581 74.7353C100.644 87.3317 101.421 128.026 100.269 132.684C99.1167 137.342 65.3344 128.351 60.3008 118.96C55.2673 109.569 46.7027 59.0838 48.2804 49.5175Z" fill="#C68EC5"/>
</g>
<path d="M89.676 136.164C89.676 136.164 86.5958 137.492 84.7176 137.216C82.8394 136.941 72.6221 135.087 71.5953 133.961C70.5686 132.834 55.6433 53.2486 57.8721 48.3403C60.1008 43.4319 101.671 37.4468 104.151 38.173C106.63 38.8993 111.288 41.5287 111.288 41.5287C111.288 41.5287 81.1115 51.145 77.7558 54.075C74.4001 56.9799 85.3437 134.311 85.4939 134.887C85.6442 135.463 89.7261 136.189 89.7261 136.189L89.676 136.164Z" fill="url(#paint9_linear_70_6023)"/>
<path d="M123.058 136.69C123.058 136.69 127.766 137.792 128.993 137.943C130.22 138.093 144.068 133.861 145.821 132.684C147.574 131.507 154.561 56.9802 153.985 52.4476C153.409 47.9149 112.39 38.1733 110.862 38.0982C109.334 38.0231 105.102 38.8996 103.074 40.5023C101.045 42.105 130.796 52.8983 132.824 57.1305C134.878 61.3627 129.694 134.387 128.968 134.912C128.241 135.413 123.033 136.716 123.033 136.716L123.058 136.69Z" fill="url(#paint10_linear_70_6023)"/>
<path d="M105.628 42.6561C101.045 41.3539 73.3231 33.6408 73.3231 33.6408L65.1091 35.3687C65.1091 35.3687 66.3112 31.7375 67.2628 31.2868C68.2144 30.8611 88.3486 26.3033 92.0048 27.1297C95.661 27.9311 114.768 40.9281 114.768 40.9281L105.628 42.6561Z" fill="url(#paint11_linear_70_6023)"/>
<path d="M154.035 37.6725C154.035 37.6725 154.01 35.9195 153.409 34.8678C152.808 33.816 135.178 28.8325 133.425 28.6823C131.672 28.532 104.125 39.0498 104.125 39.0498C104.125 39.0498 108.658 41.0532 111.788 41.504C114.919 41.9548 149.052 35.9696 149.778 35.9696C150.504 35.9696 154.035 37.6725 154.035 37.6725Z" fill="url(#paint12_linear_70_6023)"/>
<g style="mix-blend-mode:multiply" opacity="0.74">
<path d="M133.826 136.615C133.826 136.615 135.754 60.7613 138.158 58.3822C140.562 55.9782 150.754 55.4523 152.182 55.6526C153.609 55.8529 146.422 130.429 145.395 131.882C144.369 133.334 133.826 136.615 133.826 136.615Z" fill="#E8B72D"/>
</g>
<g style="mix-blend-mode:multiply" opacity="0.74">
<path d="M89.6756 136.164C89.6756 136.164 84.9927 137.266 83.6404 137.041C82.2881 136.815 72.6468 58.2321 73.4231 53.8998C74.1994 49.5674 106.404 43.1064 106.404 43.1064C106.404 43.1064 130.495 53.1485 132.624 54.9015C134.752 56.6544 133.275 65.8951 133.275 65.8951C133.275 65.8951 132.373 58.2822 130.595 56.5292C128.817 54.7762 114.743 47.4138 107.932 47.7143C103.775 47.8896 99.8429 54.7762 93.9579 56.8798C90.2015 58.2321 80.9358 53.9999 79.6086 56.1786C76.2028 61.8132 86.0194 134.762 86.7958 135.338C87.5721 135.914 89.6256 136.189 89.6256 136.189L89.6756 136.164Z" fill="#771B87"/>
</g>
<g style="mix-blend-mode:soft-light">
<path d="M59.0488 47.489C58.0722 49.8179 69.6418 52.0717 72.1711 51.8714C74.7004 51.6711 102.322 43.7576 102.998 42.6558C103.675 41.5539 91.7293 39.8009 88.0731 39.9011C84.4169 40.0013 62.3544 45.185 59.0488 47.489Z" fill="white"/>
</g>
<g style="mix-blend-mode:multiply" opacity="0.74">
<path d="M111.563 45.5608C111.563 45.5608 134.377 47.7896 148.676 45.8864C162.975 43.9581 155.287 38.0981 155.287 38.0981L107.832 43.8329L111.588 45.5858L111.563 45.5608Z" fill="#771B87"/>
</g>
<path opacity="0.5" d="M57.8716 48.3156C56.6195 48.4659 66.2859 51.9969 68.7651 52.5729C71.2443 53.1488 71.5448 53.8751 73.2227 52.8483C74.9005 51.8216 59.1238 48.1403 57.8716 48.2906V48.3156Z" fill="white"/>
<path opacity="0.5" d="M136.931 56.5295C132.399 55.8033 148.15 52.8983 151.08 52.673C154.01 52.4476 147.374 58.2074 136.931 56.5295Z" fill="white"/>
<g style="mix-blend-mode:multiply" opacity="0.4">
<path d="M58.9984 52.8984C59.3741 50.269 71.6198 55.6781 72.6215 57.2809C73.6232 58.8585 77.8805 106.74 77.2794 109.344C76.7035 111.974 66.8618 111.197 66.5362 109.344C66.1856 107.491 58.6478 55.3776 58.9984 52.8984Z" fill="#C68EC5"/>
</g>
<g style="mix-blend-mode:multiply" opacity="0.74">
<path d="M123.057 136.69C123.057 136.69 126.538 134.637 127.415 133.259C128.291 131.907 133.325 65.8701 133.325 65.8701C133.325 65.8701 130.67 131.807 129.543 134.812C128.416 137.817 123.057 136.69 123.057 136.69Z" fill="#CA2790"/>
</g>
<path d="M113.742 42.6809C113.742 42.6809 113.717 42.6809 113.692 42.6809C113.692 42.6809 113.341 42.6809 112.915 42.8312C112.74 42.8813 112.49 42.9814 112.239 43.0816C107.005 45.1852 89.5257 54.2255 86.4956 54.7764C85.7693 54.9267 84.1916 54.6763 82.1131 54.2005C74.0995 52.4224 58.7986 47.1886 57.6717 45.9114C56.2442 44.2836 44.0986 13.281 58.9989 9.62482C68.2897 7.34596 81.0864 18.4147 90.9281 26.9041C96.8631 32.0379 101.746 36.245 104.151 36.0447C104.151 36.0447 107.782 38.4738 110.586 40.377C111.037 40.6775 111.488 41.0031 111.889 41.2785C112.465 41.6542 112.965 42.0298 113.291 42.2552C113.592 42.4806 113.767 42.6308 113.767 42.6809H113.742Z" fill="url(#paint13_linear_70_6023)"/>
<g style="mix-blend-mode:multiply" opacity="0.5">
<path d="M86.2701 52.8981C81.1113 54.9015 77.7056 28.106 78.6822 23.7987C79.6589 19.4914 96.6878 41.3785 107.256 41.5288C117.824 41.679 87.397 52.4724 86.2701 52.8981Z" fill="#912790"/>
</g>
<g style="mix-blend-mode:multiply" opacity="0.74">
<path d="M113.742 41.529L113.266 42.2802L113.166 42.4305L112.916 42.8312L112.239 43.0816C107.006 45.1852 89.5259 54.2255 86.4957 54.7764C85.7695 54.9267 84.1918 54.6763 82.1133 54.2005C78.3569 46.5625 69.8675 14.0824 81.5373 21.4449C84.3921 23.248 87.6226 25.1011 90.9282 26.9042C96.8633 32.0379 101.747 36.245 104.151 36.0447C104.151 36.0447 104.727 34.9177 107.506 36.846C105.879 35.1181 108.032 36.7709 107.857 36.3953C110.211 37.8477 112.039 39.175 112.991 40.2518C113.441 40.7526 113.692 41.1784 113.767 41.554L113.742 41.529Z" fill="#E8B72D"/>
</g>
<path d="M152.808 39.5505C149.703 42.781 117.523 44.3337 113.592 43.1066C113.291 43.0064 112.991 42.8812 112.715 42.7309C112.715 42.7309 112.69 42.7309 112.665 42.7309C112.515 42.6558 112.39 42.5807 112.239 42.5056C111.839 42.2551 111.463 41.9546 111.087 41.6792C110.712 41.3286 110.386 40.978 110.086 40.6274C108.733 39.0497 107.982 37.2717 107.857 36.9461C107.857 36.896 107.832 36.896 107.832 36.896C110.712 36.846 121.981 5.09209 125.787 1.76144C129.393 -1.36887 153.785 -0.241961 163.626 4.46603C164.703 4.96688 165.555 5.49277 166.181 6.09379C172.767 12.2042 156.039 36.27 152.808 39.6006V39.5505Z" fill="url(#paint14_linear_70_6023)"/>
<g style="mix-blend-mode:multiply" opacity="0.5">
<path d="M113.641 41.1034C113.641 41.1034 125.035 38.0733 134.602 33.215C148.901 25.9527 155.788 10.9773 161.773 10.3012C167.983 9.59997 158.617 35.3687 147.223 38.8746C136.83 42.0801 113.641 41.1034 113.641 41.1034Z" fill="#912790"/>
</g>
<g style="mix-blend-mode:multiply" opacity="0.74">
<path d="M152.808 39.5506C149.703 42.7811 117.524 44.3337 113.592 43.1067C113.291 43.0065 112.991 42.8813 112.715 42.731C112.715 42.731 112.69 42.731 112.665 42.731C112.665 42.731 112.365 42.731 112.014 42.8813L111.563 43.6325L111.438 43.1317L111.088 41.6792C111.088 41.6792 111.113 41.529 111.163 41.4539C111.288 41.1033 111.614 40.7777 112.114 40.4522C115.921 37.8728 130.295 34.8677 139.561 25.9776C151.631 14.3579 155.613 5.56797 163.627 4.41602C164.704 4.91687 165.555 5.44276 166.181 6.04378C172.767 12.1541 156.039 36.22 152.808 39.5506Z" fill="#E8B72D"/>
</g>
<path d="M102.472 35.6691C102.472 35.6691 111.362 33.3902 116.596 35.6691C121.83 37.9479 120.678 41.8796 120.102 43.6075C119.526 45.3355 109.034 44.459 109.034 44.459C109.034 44.459 109.66 42.4556 108.783 39.6007C107.907 36.7709 102.472 35.6691 102.472 35.6691Z" fill="url(#paint15_linear_70_6023)"/>
<path opacity="0.3" d="M104.125 35.3184C104.125 35.3184 109.81 38.1482 110.687 38.8243C111.563 39.4754 118.65 37.9478 118.85 37.5972C119.051 37.2466 115.044 34.8927 111.263 34.8676C107.481 34.8426 104.125 35.3434 104.125 35.3434V35.3184Z" fill="white"/>
<g style="mix-blend-mode:multiply" opacity="0.74">
<path d="M111.162 35.1682C111.162 35.1682 117.047 22.5468 121.88 13.0557C127.114 2.76326 145.996 7.39611 145.621 15.5349C145.245 23.3983 122.757 35.3185 119.326 35.8444C115.995 36.3452 111.162 35.1682 111.162 35.1682Z" fill="#E8B72D"/>
</g>
<g style="mix-blend-mode:multiply" opacity="0.74">
<path d="M77.3297 52.172C81.2113 52.172 71.8704 22.5968 64.1073 17.5382C56.319 12.4797 53.5894 16.9122 52.6378 20.343C51.6862 23.7738 57.1454 44.7594 58.9735 46.6627C60.8267 48.5909 77.3297 52.147 77.3297 52.147V52.172Z" fill="#E8B72D"/>
</g>
<g style="mix-blend-mode:multiply" opacity="0.74">
<path d="M114.743 35.8192C114.743 35.8192 120.503 34.5671 123.508 30.8859C126.613 27.0544 124.935 14.9839 122.682 15.4347C120.453 15.8854 111.162 35.1681 111.162 35.1681L114.768 35.7942L114.743 35.8192Z" fill="#E8B72D"/>
</g>
<path opacity="0.3" d="M53.9904 12.8802C52.8134 15.0339 67.1377 15.1841 70.4934 19.842C73.8491 24.4999 75.8275 20.3429 78.5321 19.842C81.2367 19.3412 68.6904 10.952 61.9039 10.8017C55.1173 10.6514 54.0155 12.8802 54.0155 12.8802H53.9904Z" fill="white"/>
<path opacity="0.3" d="M123.633 6.14393C122.506 7.99707 135.303 4.21566 141.664 7.37101C148.225 10.6015 154.185 7.84682 156.664 5.36761C159.218 2.81328 129.117 -2.79624 123.633 6.14393Z" fill="white"/>
<g style="mix-blend-mode:multiply" opacity="0.74">
<path d="M145.32 25.4768C139.46 31.4369 148.751 38.0731 150.404 37.6224C152.081 37.1465 164.152 22.672 162.8 14.4581C161.422 6.06883 156.063 14.5582 145.32 25.4768Z" fill="#E8B72D"/>
</g>
<g style="mix-blend-mode:multiply" opacity="0.74">
<path d="M79.8591 38.9745C80.3599 41.2533 102.698 41.8293 104.125 41.5288C105.528 41.2033 94.3587 36.345 87.9478 29.6336C81.5369 22.9222 79.2581 22.8221 78.7071 23.7987C78.1312 24.7754 79.4834 37.2465 79.8841 38.9745H79.8591Z" fill="#E8B72D"/>
</g>
<path d="M49.2071 74.7854C49.2071 74.7854 46.2771 52.2722 48.1052 46.6627C49.9333 41.0531 51.9868 38.9746 51.9868 38.9746C51.9868 38.9746 48.1303 39.6007 46.9282 40.8278C45.7262 42.0548 45.7262 49.4173 49.2321 74.7854H49.2071Z" fill="#C992FF"/>
<path d="M46.9033 41.7291C47.0035 43.5322 48.7064 43.8828 49.082 43.5071C49.4577 43.1315 50.8099 39.876 50.8099 39.876C50.8099 39.876 46.8282 40.0763 46.9284 41.7291H46.9033Z" fill="#EDD6FF"/>
</g>
<g filter="url(#filter1_d_70_6023)">
<path d="M246.674 122.252C244.609 132.863 242.43 141.791 241.187 142.899C238.071 145.691 205.781 155.422 200.944 155.364C196.108 155.326 167.603 146.704 164.315 142.899C163.913 142.441 163.015 138.942 161.944 133.799V133.78C158.331 116.67 152.596 81.3977 155.674 79.4668C159.688 76.9624 193.986 69.2197 205.303 69.0668C216.64 68.8947 249.886 81.0153 251.683 84.1507C252.754 86.0433 249.848 106.06 246.693 122.233L246.674 122.252Z" fill="url(#paint16_linear_70_6023)"/>
<g style="mix-blend-mode:soft-light" opacity="0.5">
<path d="M155.673 79.4859C150.321 82.3345 190.735 95.5639 198.861 95.5639C206.986 95.5639 250.44 85.0492 251.664 84.1889C252.887 83.3286 216.391 69.0094 204.519 69.105C192.647 69.2006 157.279 78.6256 155.673 79.4859Z" fill="white"/>
</g>
<g style="mix-blend-mode:multiply" opacity="0.3">
<path d="M200.963 155.383C196.222 154.791 197.503 100.076 198.88 97.7814C200.256 95.4873 248.031 85.7564 249.962 86.1961C251.893 86.6358 242.888 140.146 241.206 142.899C239.524 145.652 203.143 155.632 200.963 155.364V155.383Z" fill="#912790"/>
</g>
<g style="mix-blend-mode:multiply" opacity="0.74">
<path d="M246.674 122.272C244.609 132.863 242.43 141.81 241.187 142.919C238.071 145.71 205.781 155.441 200.944 155.383C196.107 155.345 167.603 146.723 164.315 142.919C163.913 142.46 163.015 138.961 161.944 133.819C162.269 134.316 163.798 141.58 168.463 144.028C170.451 145.079 192.666 153.089 200.371 152.936C208.094 152.803 235.853 147.679 239.868 141.351C243.806 135.176 246.559 122.75 246.655 122.252L246.674 122.272Z" fill="#D45C29"/>
</g>
<g style="mix-blend-mode:multiply" opacity="0.5">
<path d="M200.963 155.364C199.205 151.751 215.455 124.699 219.469 122.271C223.484 119.824 231.934 116.937 234.611 118.715C237.287 120.493 241.187 142.918 241.187 142.918C241.187 142.918 237.344 121.029 235.49 118.505L251.683 84.6475C251.683 84.6475 235.872 115.829 235.203 116.937C234.534 118.046 227.594 117.721 217.902 121.392L199.491 97.3416C199.491 97.3416 199.052 97.1887 198.86 97.7813C198.688 98.374 215.378 117.817 215.436 122.271C215.493 126.726 200.141 149.457 199.472 151.464C198.803 153.471 200.925 155.383 200.925 155.383L200.963 155.364Z" fill="#D45C29"/>
</g>
<path d="M217.883 123.743C217.309 125.77 233.253 119.92 234.611 118.715C235.968 117.511 223.178 118.085 217.883 123.743Z" fill="#FDFF6D"/>
<g style="mix-blend-mode:multiply" opacity="0.2">
<path d="M204.328 151.005C204.328 151.005 214.958 126.955 219.699 124.871C224.44 122.787 233.808 120.092 235.586 120.78C237.364 121.468 240.939 140.987 240.346 142.689C239.753 144.39 216.525 152.63 209.394 153.529C202.263 154.427 204.347 151.005 204.347 151.005H204.328Z" fill="#912790"/>
</g>
<path d="M170.758 88.0699C170.758 88.0699 193.087 97.017 197.102 97.4567C201.116 97.8964 245.584 86.8846 248.318 85.6611C251.052 84.4375 251.415 84.3037 251.415 84.3037C251.415 84.3037 207.445 95.0479 199.434 94.3405C185.689 93.1361 170.758 88.0699 170.758 88.0699Z" fill="#FFFB92"/>
<path d="M192.991 95.9654C196.089 96.5198 197.293 136.61 197.618 137.929C197.943 139.267 196.471 104.74 198.88 97.7625L192.991 95.9463V95.9654Z" fill="#FFFB92"/>
<path d="M193.756 96.5962C188.881 93.6903 208.935 94.1492 209.528 94.6653C210.121 95.1815 197.216 99.6551 193.756 96.5962Z" fill="#FFFED6"/>
<g style="mix-blend-mode:multiply" opacity="0.2">
<path d="M156.247 86.1772C156.897 82.2772 186.166 95.7935 191.194 105.429C196.222 115.045 196.815 146.111 195.935 149.667C195.056 153.223 169.266 146.36 165.423 139.191C161.581 132.022 155.042 93.4802 156.247 86.1772Z" fill="#C68EC5"/>
</g>
<path d="M187.849 152.324C187.849 152.324 185.497 153.338 184.063 153.127C182.63 152.917 174.83 151.502 174.046 150.642C173.262 149.782 161.868 89.0256 163.569 85.2785C165.271 81.5314 197.006 76.9623 198.899 77.5167C200.791 78.0711 204.347 80.0785 204.347 80.0785C204.347 80.0785 181.31 87.4197 178.749 89.6565C176.187 91.8741 184.541 150.91 184.656 151.349C184.771 151.789 187.887 152.344 187.887 152.344L187.849 152.324Z" fill="url(#paint17_linear_70_6023)"/>
<path d="M213.332 152.726C213.332 152.726 216.927 153.567 217.863 153.682C218.8 153.797 229.372 150.566 230.71 149.667C232.049 148.769 237.383 91.8742 236.943 88.4139C236.503 84.9536 205.188 77.5168 204.022 77.4595C202.856 77.4021 199.625 78.0712 198.076 79.2948C196.528 80.5183 219.24 88.758 220.788 91.9889C222.356 95.2198 218.399 150.967 217.844 151.369C217.29 151.751 213.313 152.745 213.313 152.745L213.332 152.726Z" fill="url(#paint18_linear_70_6023)"/>
<path d="M200.027 80.9581C196.528 79.964 175.365 74.0757 175.365 74.0757L169.094 75.3948C169.094 75.3948 170.012 72.6228 170.738 72.2787C171.465 71.9537 186.835 68.4742 189.627 69.1051C192.418 69.7169 207.005 79.639 207.005 79.639L200.027 80.9581Z" fill="url(#paint19_linear_70_6023)"/>
<path d="M236.981 77.1345C236.981 77.1345 236.962 75.7963 236.503 74.9933C236.045 74.1904 222.586 70.3859 221.247 70.2712C219.909 70.1565 198.88 78.186 198.88 78.186C198.88 78.186 202.34 79.7154 204.73 80.0595C207.119 80.4036 233.177 75.8345 233.731 75.8345C234.286 75.8345 236.981 77.1345 236.981 77.1345Z" fill="url(#paint20_linear_70_6023)"/>
<g style="mix-blend-mode:multiply" opacity="0.74">
<path d="M221.534 152.688C221.534 152.688 223.006 94.7802 224.841 92.9641C226.677 91.1288 234.458 90.7273 235.547 90.8802C236.637 91.0332 231.15 147.966 230.366 149.075C229.582 150.183 221.534 152.688 221.534 152.688Z" fill="#CA2790"/>
</g>
<g style="mix-blend-mode:multiply" opacity="0.74">
<path d="M187.849 152.325C187.849 152.325 184.273 153.166 183.241 152.994C182.209 152.822 174.848 92.8303 175.441 89.5229C176.034 86.2156 200.619 81.2832 200.619 81.2832C200.619 81.2832 219.01 88.9494 220.635 90.2877C222.26 91.6259 221.132 98.6804 221.132 98.6804C221.132 98.6804 220.444 92.8686 219.087 91.5303C217.729 90.1921 206.985 84.5715 201.785 84.8009C198.612 84.9347 195.61 90.1921 191.118 91.798C188.25 92.8303 181.176 89.5994 180.163 91.2627C177.563 95.5642 185.057 151.254 185.65 151.694C186.243 152.134 187.81 152.344 187.81 152.344L187.849 152.325Z" fill="#CA6E27"/>
</g>
<g style="mix-blend-mode:soft-light">
<path d="M164.468 84.6479C163.722 86.4258 172.554 88.1464 174.485 87.9935C176.416 87.8405 197.503 81.7993 198.019 80.9581C198.535 80.117 189.416 78.7787 186.625 78.8552C183.834 78.9317 166.991 82.889 164.468 84.6479Z" fill="white"/>
</g>
<g style="mix-blend-mode:multiply" opacity="0.74">
<path d="M204.558 83.1756C204.558 83.1756 221.974 84.8771 232.89 83.4241C243.807 81.9521 237.937 77.4785 237.937 77.4785L201.709 81.8565L204.577 83.1947L204.558 83.1756Z" fill="#CA6E27"/>
</g>
<path opacity="0.5" d="M163.55 85.2784C162.594 85.3931 169.974 88.0887 171.866 88.5284C173.759 88.9681 173.988 89.5225 175.269 88.7387C176.55 87.9549 164.506 85.1446 163.55 85.2593V85.2784Z" fill="white"/>
<path opacity="0.5" d="M223.924 91.5492C220.463 90.9947 232.488 88.7771 234.725 88.605C236.962 88.433 231.896 92.8301 223.924 91.5492Z" fill="white"/>
<g style="mix-blend-mode:multiply" opacity="0.4">
<path d="M164.41 88.7579C164.697 86.7506 174.045 90.88 174.81 92.1035C175.575 93.3079 178.825 129.861 178.366 131.849C177.926 133.857 170.413 133.264 170.164 131.849C169.897 130.435 164.142 90.6506 164.41 88.7579Z" fill="#C68EC5"/>
</g>
<g style="mix-blend-mode:multiply" opacity="0.74">
<path d="M213.333 152.726C213.333 152.726 215.99 151.158 216.659 150.107C217.328 149.075 221.171 98.6611 221.171 98.6611C221.171 98.6611 219.144 148.998 218.284 151.292C217.424 153.606 213.333 152.726 213.333 152.726Z" fill="#CA2790"/>
</g>
<path d="M206.221 80.9581C206.221 80.9581 206.202 80.9581 206.183 80.9581C206.183 80.9581 205.915 80.9581 205.59 81.0728C205.456 81.111 205.265 81.1875 205.074 81.264C201.078 82.8699 187.734 89.7714 185.421 90.192C184.867 90.3067 183.662 90.1155 182.075 89.7523C175.958 88.3949 164.277 84.3993 163.416 83.4243C162.327 82.1817 153.055 58.5139 164.43 55.7227C171.522 53.983 181.292 62.433 188.805 68.9139C193.336 72.8331 197.064 76.0448 198.899 75.8919C198.899 75.8919 202.436 75.8345 204.577 77.3066L203.812 79.2184C204.156 79.4478 204.501 79.6963 204.806 79.9066C205.246 80.1934 205.628 80.4802 205.877 80.6522C206.106 80.8243 206.24 80.939 206.24 80.9772L206.221 80.9581Z" fill="url(#paint21_linear_70_6023)"/>
<g style="mix-blend-mode:multiply" opacity="0.5">
<path d="M185.249 88.7582C181.31 90.2876 178.71 69.8316 179.456 66.5433C180.202 63.2551 193.202 79.964 201.269 80.0787C209.337 80.1934 186.109 88.4332 185.249 88.7582Z" fill="#912790"/>
</g>
<g style="mix-blend-mode:multiply" opacity="0.74">
<path d="M206.221 80.0784L205.858 80.6519L205.781 80.7666L205.59 81.0725L205.074 81.2637C201.078 82.8696 187.734 89.7711 185.421 90.1917C184.867 90.3064 183.662 90.1152 182.075 89.752C179.208 83.9211 172.727 59.1253 181.636 64.746C183.815 66.1224 186.281 67.5371 188.805 68.9136C193.336 72.8328 197.064 76.0445 198.899 75.8916C198.899 75.8916 200.084 75.4328 202.226 76.9048C200.983 75.5857 201.881 76.446 201.748 76.1593C203.545 77.2681 204.94 78.2813 205.667 79.1034C206.011 79.4857 206.202 79.8107 206.259 80.0975L206.221 80.0784Z" fill="#CA2790"/>
</g>
<path d="M236.045 78.5874C233.674 81.0536 209.108 82.2389 206.106 81.3022C205.877 81.2257 205.648 81.1301 205.437 81.0154C205.437 81.0154 205.418 81.0154 205.399 81.0154C205.284 80.958 205.189 80.9007 205.074 80.8433C204.768 80.6522 204.481 80.4227 204.195 80.2124C203.908 79.9448 203.659 79.6771 203.43 79.4095C202.397 78.2051 201.824 76.8477 201.728 76.5992C201.728 76.561 201.709 76.5609 201.709 76.5609C203.908 76.5418 212.511 52.2814 215.417 49.7387C218.17 47.349 236.79 48.2093 244.304 51.8035C245.126 52.1858 245.776 52.5873 246.254 53.0461C251.282 57.7109 238.511 76.083 236.045 78.6257V78.5874Z" fill="url(#paint22_linear_70_6023)"/>
<g style="mix-blend-mode:multiply" opacity="0.5">
<path d="M206.125 79.7536C206.125 79.7536 214.824 77.4403 222.127 73.7315C233.043 68.1873 238.301 56.7549 242.87 56.2388C247.611 55.7035 240.461 75.3756 231.762 78.0521C223.828 80.4992 206.125 79.7536 206.125 79.7536Z" fill="#912790"/>
</g>
<g style="mix-blend-mode:multiply" opacity="0.74">
<path d="M236.044 78.5873C233.674 81.0535 209.107 82.2388 206.106 81.3021C205.876 81.2256 205.647 81.13 205.437 81.0153C205.437 81.0153 205.418 81.0153 205.399 81.0153C205.399 81.0153 205.169 81.0153 204.901 81.13L204.557 81.7035L204.462 81.3212L204.194 80.2124C204.194 80.2124 204.213 80.0976 204.252 80.0403C204.347 79.7726 204.596 79.5241 204.978 79.2756C207.884 77.3064 218.857 75.0123 225.931 68.2255C235.146 59.3549 238.185 52.6446 244.303 51.7651C245.125 52.1475 245.775 52.549 246.253 53.0078C251.281 57.6725 238.51 76.0447 236.044 78.5873Z" fill="#CA2790"/>
</g>
<path d="M197.618 75.6238C197.618 75.6238 204.405 73.8841 208.4 75.6238C212.396 77.3635 211.516 80.365 211.077 81.6841C210.637 83.0032 202.627 82.3341 202.627 82.3341C202.627 82.3341 203.105 80.8047 202.435 78.6253C201.766 76.465 197.618 75.6238 197.618 75.6238Z" fill="url(#paint23_linear_70_6023)"/>
<path opacity="0.3" d="M198.88 75.3375C198.88 75.3375 203.219 77.4978 203.888 78.014C204.558 78.511 209.968 77.3449 210.121 77.0772C210.274 76.8096 207.215 75.0125 204.328 74.9934C201.441 74.9743 198.88 75.3566 198.88 75.3566V75.3375Z" fill="white"/>
<g style="mix-blend-mode:multiply" opacity="0.74">
<path d="M204.232 75.2417C204.232 75.2417 208.725 65.6063 212.415 58.3607C216.41 50.5033 230.825 54.0401 230.538 60.2533C230.251 66.2563 213.084 75.3564 210.465 75.7578C207.922 76.1402 204.232 75.2417 204.232 75.2417Z" fill="#CA2790"/>
</g>
<g style="mix-blend-mode:multiply" opacity="0.74">
<path d="M178.424 88.2227C181.387 88.2227 174.256 65.6446 168.33 61.7828C162.384 57.9211 160.3 61.3049 159.574 63.924C158.847 66.5431 163.015 82.5638 164.41 84.0168C165.825 85.4888 178.424 88.2036 178.424 88.2036V88.2227Z" fill="#CA2790"/>
</g>
<g style="mix-blend-mode:multiply" opacity="0.74">
<path d="M206.986 75.7197C206.986 75.7197 211.383 74.7638 213.677 71.9535C216.048 69.0285 214.767 59.8137 213.046 60.1578C211.345 60.5019 204.252 75.2226 204.252 75.2226L207.005 75.7006L206.986 75.7197Z" fill="#CA2790"/>
</g>
<path opacity="0.3" d="M160.606 58.208C159.708 59.8522 170.643 59.9669 173.205 63.5228C175.766 67.0787 177.277 63.9051 179.341 63.5228C181.406 63.1404 171.828 56.736 166.647 56.6213C161.466 56.5066 160.625 58.208 160.625 58.208H160.606Z" fill="white"/>
<path opacity="0.3" d="M213.753 53.0654C212.893 54.4801 222.662 51.5933 227.518 54.0022C232.527 56.4684 237.077 54.3654 238.969 52.4727C240.919 50.5227 217.94 46.2404 213.753 53.0654Z" fill="white"/>
<g style="mix-blend-mode:multiply" opacity="0.74">
<path d="M230.328 67.8431C225.855 72.3931 232.948 77.4593 234.209 77.1152C235.49 76.752 244.705 65.7019 243.673 59.4313C242.621 53.0269 238.53 59.5078 230.328 67.8431Z" fill="#CA2790"/>
</g>
<g style="mix-blend-mode:multiply" opacity="0.74">
<path d="M180.354 78.1285C180.737 79.8682 197.79 80.3079 198.879 80.0785C199.95 79.83 191.423 76.1211 186.529 70.9976C181.635 65.874 179.895 65.7976 179.475 66.5431C179.035 67.2887 180.067 76.8094 180.373 78.1285H180.354Z" fill="#CA2790"/>
</g>
<path d="M156.935 105.467C156.935 105.467 154.698 88.2799 156.094 83.9976C157.49 79.7152 159.057 78.1284 159.057 78.1284C159.057 78.1284 156.113 78.6064 155.195 79.5431C154.278 80.4799 154.278 86.1005 156.954 105.467H156.935Z" fill="#FFFB92"/>
<path d="M155.196 80.2506C155.272 81.6271 156.572 81.8948 156.859 81.608C157.146 81.3212 158.178 78.8359 158.178 78.8359C158.178 78.8359 155.138 78.9889 155.215 80.2506H155.196Z" fill="#FFFED6"/>
</g>
<defs>
<filter id="filter0_d_70_6023" x="38.2043" y="0" width="141.385" height="155.171" filterUnits="userSpaceOnUse" color-interpolation-filters="sRGB">
<feFlood flood-opacity="0" result="BackgroundImageFix"/>
<feColorMatrix in="SourceAlpha" type="matrix" values="0 0 0 0 0 0 0 0 0 0 0 0 0 0 0 0 0 0 127 0" result="hardAlpha"/>
<feOffset dx="-1" dy="8"/>
<feGaussianBlur stdDeviation="3.5"/>
<feComposite in2="hardAlpha" operator="out"/>
<feColorMatrix type="matrix" values="0 0 0 0 0 0 0 0 0 0 0 0 0 0 0 0 0 0 0.7 0"/>
<feBlend mode="normal" in2="BackgroundImageFix" result="effect1_dropShadow_70_6023"/>
<feBlend mode="normal" in="SourceGraphic" in2="effect1_dropShadow_70_6023" result="shape"/>
</filter>
<filter id="filter1_d_70_6023" x="144.643" y="48.394" width="111.266" height="121.99" filterUnits="userSpaceOnUse" color-interpolation-filters="sRGB">
<feFlood flood-opacity="0" result="BackgroundImageFix"/>
<feColorMatrix in="SourceAlpha" type="matrix" values="0 0 0 0 0 0 0 0 0 0 0 0 0 0 0 0 0 0 127 0" result="hardAlpha"/>
<feOffset dx="-3" dy="8"/>
<feGaussianBlur stdDeviation="3.5"/>
<feComposite in2="hardAlpha" operator="out"/>
<feColorMatrix type="matrix" values="0 0 0 0 0 0 0 0 0 0 0 0 0 0 0 0 0 0 0.7 0"/>
<feBlend mode="normal" in2="BackgroundImageFix" result="effect1_dropShadow_70_6023"/>
<feBlend mode="normal" in="SourceGraphic" in2="effect1_dropShadow_70_6023" result="shape"/>
</filter>
<linearGradient id="paint0_linear_70_6023" x1="50.4351" y1="144.632" x2="50.4351" y2="56.1635" gradientUnits="userSpaceOnUse">
<stop stop-color="#FFE11F"/>
<stop offset="1" stop-color="#FFC66B"/>
</linearGradient>
<linearGradient id="paint1_linear_70_6023" x1="30.4445" y1="142.359" x2="30.4445" y2="64.7676" gradientUnits="userSpaceOnUse">
<stop stop-color="#A90086"/>
<stop offset="1" stop-color="#FF003B"/>
</linearGradient>
<linearGradient id="paint2_linear_70_6023" x1="64.938" y1="142.908" x2="64.938" y2="64.7677" gradientUnits="userSpaceOnUse">
<stop stop-color="#A90086"/>
<stop offset="1" stop-color="#FF003B"/>
</linearGradient>
<linearGradient id="paint3_linear_70_6023" x1="34.7562" y1="68.3344" x2="34.7562" y2="56.1048" gradientUnits="userSpaceOnUse">
<stop stop-color="#E82E86"/>
<stop offset="1" stop-color="#FF003B"/>
</linearGradient>
<linearGradient id="paint4_linear_70_6023" x1="65.3695" y1="34.9184" x2="65.3695" y2="34.9184" gradientUnits="userSpaceOnUse">
<stop stop-color="#E82E86"/>
<stop offset="1" stop-color="#FF003B"/>
</linearGradient>
<linearGradient id="paint5_linear_70_6023" x1="29.0727" y1="77.8401" x2="29.0727" y2="42.2291" gradientUnits="userSpaceOnUse">
<stop stop-color="#A90086"/>
<stop offset="1" stop-color="#FF003B"/>
</linearGradient>
<linearGradient id="paint6_linear_70_6023" x1="72.17" y1="69.0205" x2="72.17" y2="34.9186" gradientUnits="userSpaceOnUse">
<stop stop-color="#A90086"/>
<stop offset="1" stop-color="#FF003B"/>
</linearGradient>
<linearGradient id="paint7_linear_70_6023" x1="51.6698" y1="69.922" x2="51.6698" y2="62.0628" gradientUnits="userSpaceOnUse">
<stop stop-color="#A90086"/>
<stop offset="1" stop-color="#FF003B"/>
</linearGradient>
<linearGradient id="paint8_linear_70_6023" x1="109.985" y1="140.146" x2="109.985" y2="27.1044" gradientUnits="userSpaceOnUse">
<stop stop-color="#5A2BE0"/>
<stop offset="1" stop-color="#A66BFF"/>
</linearGradient>
<linearGradient id="paint9_linear_70_6023" x1="84.4421" y1="-0.0418093" x2="84.4421" y2="-0.0418093" gradientUnits="userSpaceOnUse">
<stop stop-color="#FFFF00"/>
<stop offset="1" stop-color="#FFBE3B"/>
</linearGradient>
<linearGradient id="paint10_linear_70_6023" x1="128.517" y1="137.943" x2="128.517" y2="38.0982" gradientUnits="userSpaceOnUse">
<stop stop-color="#FFFF00"/>
<stop offset="1" stop-color="#FFBE3B"/>
</linearGradient>
<linearGradient id="paint11_linear_70_6023" x1="89.9513" y1="-0.0413653" x2="89.9513" y2="-0.0413653" gradientUnits="userSpaceOnUse">
<stop stop-color="#E8CD1D"/>
<stop offset="1" stop-color="#FFFF3B"/>
</linearGradient>
<linearGradient id="paint12_linear_70_6023" x1="129.093" y1="-0.0414722" x2="129.093" y2="-0.0414722" gradientUnits="userSpaceOnUse">
<stop stop-color="#E82E86"/>
<stop offset="1" stop-color="#FF003B"/>
</linearGradient>
<linearGradient id="paint13_linear_70_6023" x1="82.6891" y1="54.8015" x2="82.6891" y2="9.29927" gradientUnits="userSpaceOnUse">
<stop stop-color="#FFFF00"/>
<stop offset="1" stop-color="#FFBE3B"/>
</linearGradient>
<linearGradient id="paint14_linear_70_6023" x1="137.758" y1="43.5323" x2="137.758" y2="-0.0416203" gradientUnits="userSpaceOnUse">
<stop stop-color="#FFFF00"/>
<stop offset="1" stop-color="#FFBE3B"/>
</linearGradient>
<linearGradient id="paint15_linear_70_6023" x1="111.563" y1="44.6844" x2="111.563" y2="34.6423" gradientUnits="userSpaceOnUse">
<stop stop-color="#FFFF00"/>
<stop offset="1" stop-color="#FFBE3B"/>
</linearGradient>
<linearGradient id="paint16_linear_70_6023" x1="-893.28" y1="155.364" x2="-891.368" y2="69.0859" gradientUnits="userSpaceOnUse">
<stop stop-color="#FFE11F"/>
<stop offset="1" stop-color="#FFC66B"/>
</linearGradient>
<linearGradient id="paint17_linear_70_6023" x1="183.853" y1="153.166" x2="183.853" y2="77.4593" gradientUnits="userSpaceOnUse">
<stop stop-color="#44009E"/>
<stop offset="1" stop-color="#0091FF"/>
</linearGradient>
<linearGradient id="paint18_linear_70_6023" x1="217.5" y1="153.682" x2="217.5" y2="77.4595" gradientUnits="userSpaceOnUse">
<stop stop-color="#44009E"/>
<stop offset="1" stop-color="#0091FF"/>
</linearGradient>
<linearGradient id="paint19_linear_70_6023" x1="188.059" y1="80.9581" x2="188.059" y2="69.0286" gradientUnits="userSpaceOnUse">
<stop stop-color="#0091FF"/>
<stop offset="1" stop-color="#44009E"/>
</linearGradient>
<linearGradient id="paint20_linear_70_6023" x1="217.921" y1="80.0786" x2="217.921" y2="70.2712" gradientUnits="userSpaceOnUse">
<stop stop-color="#E82E86"/>
<stop offset="1" stop-color="#FF003B"/>
</linearGradient>
<linearGradient id="paint21_linear_70_6023" x1="182.515" y1="90.2302" x2="182.515" y2="55.4933" gradientUnits="userSpaceOnUse">
<stop stop-color="#44009E"/>
<stop offset="1" stop-color="#0091FF"/>
</linearGradient>
<linearGradient id="paint22_linear_70_6023" x1="224.555" y1="81.608" x2="224.555" y2="48.3623" gradientUnits="userSpaceOnUse">
<stop stop-color="#44009E"/>
<stop offset="1" stop-color="#0091FF"/>
</linearGradient>
<linearGradient id="paint23_linear_70_6023" x1="204.557" y1="82.5062" x2="204.557" y2="74.84" gradientUnits="userSpaceOnUse">
<stop stop-color="#44009E"/>
<stop offset="1" stop-color="#0091FF"/>
</linearGradient>
</defs>
</svg>
