<svg width="319" height="54" viewBox="0 0 319 54" fill="none" xmlns="http://www.w3.org/2000/svg">
<path d="M280.253 0.296068C286.015 1.40463 297.486 4.07209 302.846 6.31692C309.33 9.04674 319.364 14.2431 314.355 17.4995C312.427 18.7535 303.084 18.8644 300.732 18.9614C296.34 19.1415 288.442 18.8505 284.05 19.0307C282.464 19.093 280.774 19.19 279.487 20.0561C275.623 22.6474 277.365 30.4211 272.631 30.8992C267.978 31.3703 267.412 23.4303 262.849 22.4603C258.226 21.4764 255.867 32.6798 251.289 33.8091C247.909 34.6406 247.284 22.1624 241.782 22.1624C236.281 22.1624 236.996 29.0701 233.631 29.0701C230.267 29.0701 229.008 22.9522 223.262 23.0977C214.679 23.3125 200.334 25.3287 192.108 27.622C185.059 29.5897 177.414 33.0262 170.774 30.0885C167.722 28.7375 165.429 26.1878 162.384 24.8298C159.131 23.3748 152.804 27.6844 149.193 27.7536C142.866 27.8784 139.092 23.749 132.764 23.8737C129.913 23.9291 126.511 24.2894 125.201 26.6451C124.658 27.622 123.296 32.4096 122.663 33.338C120.556 36.4489 116.849 30.532 113.298 28.9176C107.038 26.077 99.7053 26.5619 92.76 27.1024C88.0851 27.4696 82.9859 28.0169 79.7106 31.1486C77.6113 33.1579 75.2739 36.4073 72.5717 35.1671C70.8149 34.3634 70.3683 31.9592 68.537 31.308C66.088 30.435 64.1227 33.3034 63.2964 35.6175C61.8746 39.5875 60.4528 43.5644 59.031 47.5345C58.4057 49.2874 57.1923 51.4144 55.2196 51.1996C53.3661 50.9987 52.6365 48.8994 52.3165 47.195C51.4306 42.4351 53.7457 32.9154 49.6589 32.9154C45.5721 32.9154 44.9766 40.2318 40.6442 40.0171C35.4036 39.7538 39.5648 26.3472 35.5599 26.3472C31.555 26.3472 35.5599 36.5944 30.5575 36.5944C25.5551 36.5944 23.8727 27.6705 17.0465 24.4834C15.6843 23.846 2.91028 21.9129 2.03189 20.7559C-0.796844 17.0214 9.89279 11.0976 13.9721 8.56175C21.2152 4.05131 29.9471 -0.549207 38.1653 2.13904C42.7583 3.64253 46.3835 7.25919 51.118 8.31232C61.9193 10.7165 72.274 -1.06884 82.9413 1.80648C85.2117 2.41618 87.2365 3.66331 89.5069 4.27302C97.621 6.4347 105.78 -0.00878568 114.199 0.621706C118.375 0.933488 122.179 2.97046 126.273 3.79495C136.084 5.76957 145.918 0.64942 155.96 0.393066C172.084 -0.0157141 187.419 12.0814 203.006 8.22918C209.066 6.73263 214.507 2.88732 220.775 2.82496C225.964 2.77646 230.736 5.34693 235.82 6.30999C250.641 9.11603 265.313 -1.94183 280.246 0.302996L280.253 0.296068Z" fill="white"/>
<path opacity="0.3" d="M313.327 8.32544C318.397 10.1203 322.029 17.887 315.412 20.1677C312.62 21.1326 309.233 21.1191 306.285 21.2676C301.863 21.497 297.427 21.4835 292.998 21.5914C291.107 21.6387 289.223 21.7264 287.333 21.8074C285.747 21.8749 281.973 21.3013 280.886 22.3404C279.97 23.2176 279.874 25.4646 279.405 26.6185C278.787 28.1232 277.998 29.628 276.725 30.7751C274.216 33.0423 270.591 33.2245 267.904 31.153C266.653 30.188 265.708 28.8587 264.889 27.5767C264.085 26.3216 262.737 22.9545 260.981 25.0125C259.38 26.8884 259.313 30.1273 257.973 32.2528C256.41 34.7292 253.834 36.3959 250.589 36.0181C247.217 35.6267 245.222 33.292 243.986 30.6199C243.495 29.5672 243.219 27.8398 242.378 26.9829C241.172 25.748 240.316 27.1718 238.961 28.13C235.932 30.2758 232.753 30.7953 229.388 28.8452C227.252 27.6037 225.577 26.2204 223.098 25.4781C220.701 24.7629 218.177 24.5672 215.661 24.6347C204.86 24.9451 195.436 30.2353 185.163 32.5362C180.258 33.6361 174.92 34.0342 170.067 32.489C165.838 31.1462 163.196 26.2946 158.521 26.7332C153.712 27.1786 149.365 29.5268 144.414 29.2569C139.829 29.0139 134.894 26.1327 130.345 26.74C126.363 27.273 125.73 32.4148 122.522 34.2906C118.718 36.5241 115.271 34.4593 111.743 32.9006C106.599 30.6266 100.718 29.6077 95.0158 30.0058C92.2764 30.2015 88.8894 30.6131 86.4254 31.7603C84.7877 32.5227 83.4999 33.9937 82.1748 35.1206C79.5843 37.3204 76.5248 39.7698 72.6911 38.9601C71.1279 38.6294 69.8029 37.8197 68.6267 36.8548C68.0907 36.4162 67.4877 35.9168 67.0634 35.3905C66.9741 35.2758 66.3414 34.8372 66.3414 34.709C66.3414 34.4931 67.4878 34.4796 67.592 34.7562C67.5622 34.6685 65.7905 38.0221 65.6789 38.4202C65.2248 40.0869 64.9642 41.7874 64.5399 43.4608C63.7285 46.666 62.2993 49.5742 59.4482 51.6997C56.7237 53.7376 52.5401 55.2558 50.0538 52.0439C48.5501 50.1005 47.4707 46.9898 47.4782 44.6282C47.4782 42.3272 48.1705 40.0194 47.9323 37.7185C47.9025 37.4148 47.5303 36.315 47.6047 36.0855C47.5452 35.9168 47.4782 35.7481 47.4186 35.5862C48.3045 35.5457 49.1829 35.5052 50.0687 35.4647C50.1953 35.8291 48.3194 37.624 48.0067 37.9277C44.9547 40.9102 40.585 41.4635 37.265 38.4202C35.9474 37.2124 35.1583 35.7616 34.6447 34.1354C34.4288 33.4472 33.1559 29.7427 33.528 29.2164C33.7663 28.8722 37.0044 29.0612 36.9597 28.9937C37.0714 29.1624 36.7066 29.8979 36.6322 30.1678C36.4387 30.8628 36.2823 31.5511 36.0144 32.2258C35.2327 34.1827 33.8556 35.3703 31.7787 36.2745C22.5109 40.3029 21.3124 28.9667 14.8882 26.578C9.37216 24.5267 1.19858 24.1488 9.15527e-05 17.5563C5.80856 8.73031 17.3947 26.1689 5.80856 20.8997C3.96454 24.6689 2.02823 18.4719 6.34576 16.8997C0.51413 26.1873 9.2998 16.233 5.80856 17.8997C1.98978 19.7215 6.24966 16.8997 5.04596 17.9005C2.88718 19.6954 6.78372 14.3018 5.80856 16.8997C5.34702 18.1277 7.81631 17.2662 9.43912 17.9004C12.4837 19.0948 15.8261 19.5199 18.8484 20.802C21.6772 21.9963 23.7615 23.6967 25.3843 26.1057C26.0319 27.0706 26.6795 29.0342 27.7143 29.6887C29.5529 30.8493 29.203 28.798 29.6943 27.3405C30.5876 24.6819 32.7688 22.6104 36.0367 23.1637C39.9448 23.8182 40.7785 27.3607 41.3889 30.35C41.4932 30.8493 41.7611 33.3325 42.379 33.4472C42.7512 33.5147 45.3417 29.9114 46.0787 29.5403C49.8752 27.6307 53.5599 30.6874 54.684 33.8453C56.0612 37.705 54.1778 41.3353 54.7287 45.1207C54.8031 45.6133 55.9495 47.2935 55.8378 48.0425C55.9123 48.1842 55.9942 48.3326 56.0686 48.4743C53.4706 48.11 52.9198 47.6444 54.416 47.0843C55.019 46.3893 55.8899 46.0384 56.4259 45.2422C59.7162 40.3434 57.6393 33.3865 63.4382 29.6347C66.0138 27.968 68.6937 28.1165 71.0609 30.0126C71.8723 30.6604 72.8475 32.2663 73.8524 32.5835C75.0732 32.9748 76.6737 31.1057 77.5744 30.3297C80.0905 28.1772 82.294 26.3283 85.6438 25.3229C90.4377 23.8789 95.7007 23.2986 100.733 23.7912C105.698 24.277 110.604 25.7076 115.055 27.7454C116.187 28.2649 117.951 29.7089 119.194 29.1961C120.534 28.6428 121.621 25.6738 122.536 24.6077C128.492 17.6913 136.926 23.0692 144.414 23.69C149.074 24.0814 153.519 21.5847 158.119 21.1933C162.496 20.8222 165.31 22.4012 168.459 24.999C176.327 31.4903 188.096 26.0112 196.53 23.1772C204.845 20.3836 214.21 17.9004 223.105 19.8101C225.115 20.2419 227.125 20.9437 228.912 21.8816C230.073 22.4956 232.023 24.493 233.252 24.6212C234.927 24.7966 236.333 22.9882 237.577 22.1987C238.961 21.3283 240.48 20.7412 242.192 20.8559C245.043 21.0516 246.792 22.8533 247.946 25.0665C248.616 26.3486 249.688 31.3756 251.996 30.5794C254.035 29.8709 254.594 24.8169 255.465 23.1502C256.857 20.4983 259.715 18.5685 263.08 18.9463C267.695 19.4592 268.447 23.4133 270.844 26.2271C272.43 28.0895 273.219 26.5983 273.971 24.8169C274.648 23.2042 274.737 21.362 275.623 19.8235C277.492 16.5779 281.355 16.6454 284.876 16.6251C289.134 16.6116 293.4 16.3485 297.665 16.2877C301.841 16.227 306.039 16.2675 310.208 15.9841C310.967 15.9301 313.26 16.0313 313.856 15.4848C315.054 14.3781 312.828 11.0718 312.002 10.3767C311.049 9.56702 312.032 7.83961 313.335 8.29845L313.327 8.32544Z" fill="#5584C9"/>
<g opacity="0.15">
<path d="M268.06 12.6357C267.383 12.6357 267.383 11.6519 268.06 11.6519C268.737 11.6519 268.737 12.6357 268.06 12.6357Z" fill="#5584C9"/>
<path d="M267.055 7.4599C266.452 7.4599 266.452 6.58691 267.055 6.58691C267.658 6.58691 267.658 7.4599 267.055 7.4599Z" fill="#5584C9"/>
<path d="M226.269 16.072C226.202 16.072 226.142 16.0651 226.09 16.0374C226.031 16.0166 225.986 15.9889 225.941 15.9473C225.897 15.9057 225.867 15.8642 225.845 15.8087C225.815 15.7602 225.8 15.7048 225.807 15.6425L225.822 15.5247C225.845 15.4485 225.882 15.3861 225.941 15.3376L226.038 15.2683C226.113 15.2267 226.187 15.2129 226.269 15.2129C226.336 15.2129 226.396 15.2198 226.448 15.2475C226.507 15.2683 226.552 15.296 226.597 15.3376C226.641 15.3792 226.671 15.4207 226.693 15.4762C226.723 15.5247 226.738 15.5801 226.731 15.6425L226.716 15.7602C226.693 15.8365 226.656 15.8988 226.597 15.9473L226.5 16.0166C226.425 16.0582 226.351 16.072 226.269 16.072Z" fill="#5584C9"/>
<path d="M218.006 14.2292C217.694 14.2292 217.694 13.7788 218.006 13.7788C218.319 13.7788 218.319 14.2292 218.006 14.2292Z" fill="#5584C9"/>
<path d="M162.451 10.8C161.737 10.8 161.737 9.76074 162.451 9.76074C163.166 9.76074 163.166 10.8 162.451 10.8Z" fill="#5584C9"/>
<path d="M148.434 6.59422C148.054 6.59422 148.054 6.04688 148.434 6.04688C148.814 6.04688 148.814 6.59422 148.434 6.59422Z" fill="#5584C9"/>
<path d="M79.1151 5.6033C78.8173 5.6033 78.8173 5.18066 79.1151 5.18066C79.4128 5.18066 79.4128 5.6033 79.1151 5.6033Z" fill="#5584C9"/>
<path d="M82.5839 7.11348L82.6361 6.93334L82.6881 6.82248C82.7179 6.76705 82.7626 6.72548 82.8147 6.69084C82.8445 6.66313 82.8817 6.64234 82.9264 6.62849C82.9859 6.60077 83.0529 6.58691 83.1199 6.58691L83.2539 6.60077L83.373 6.64927C83.4326 6.67698 83.4772 6.71856 83.5145 6.76705C83.5591 6.81555 83.5889 6.86405 83.6038 6.92641L83.6559 7.10655C83.6857 7.19662 83.6857 7.29362 83.6559 7.38369C83.6261 7.47376 83.5814 7.54997 83.5145 7.61233L83.4028 7.69547C83.3135 7.74397 83.2241 7.76476 83.1199 7.76476C83.0455 7.76476 82.971 7.7509 82.904 7.72319C82.837 7.7024 82.7775 7.66776 82.7254 7.61926C82.6584 7.5569 82.6063 7.48069 82.5839 7.39062C82.5542 7.30055 82.5542 7.20355 82.5839 7.11348Z" fill="#5584C9"/>
<path d="M29.3145 7.16936C28.786 7.16936 28.786 6.40723 29.3145 6.40723C29.8431 6.40723 29.8431 7.16936 29.3145 7.16936Z" fill="#5584C9"/>
<path d="M297.092 8.86005C296.802 8.86005 296.802 8.44434 297.092 8.44434C297.382 8.44434 297.382 8.86005 297.092 8.86005Z" fill="#5584C9"/>
<path d="M302.347 10.5155C301.7 10.5155 301.7 9.57324 302.347 9.57324C302.995 9.57324 302.995 10.5155 302.347 10.5155Z" fill="#5584C9"/>
<path d="M182.476 15.8508C181.858 15.8508 181.858 14.957 182.476 14.957C183.093 14.957 183.093 15.8508 182.476 15.8508Z" fill="#5584C9"/>
<path d="M189.979 14.8739C189.429 14.8739 189.429 14.0771 189.979 14.0771C190.53 14.0771 190.53 14.8739 189.979 14.8739Z" fill="#5584C9"/>
<path d="M244.537 10.5571C244.157 10.5571 244.157 10.0098 244.537 10.0098C244.917 10.0098 244.917 10.5571 244.537 10.5571Z" fill="#5584C9"/>
<path d="M117.906 11.0977C117.422 11.0977 117.422 10.3979 117.906 10.3979C118.39 10.3979 118.39 11.0977 117.906 11.0977Z" fill="#5584C9"/>
<path d="M105.891 10.509C105.571 10.509 105.571 10.0518 105.891 10.0518C106.211 10.0518 106.211 10.509 105.891 10.509Z" fill="#5584C9"/>
<path d="M49.3389 15.7746C48.8253 15.7746 48.8253 15.0332 49.3389 15.0332C49.8525 15.0332 49.8525 15.7746 49.3389 15.7746Z" fill="#5584C9"/>
<path d="M152.439 10.0307C152.335 10.0307 152.245 10.0169 152.156 9.97531C152.067 9.9476 151.985 9.8991 151.918 9.83674C151.843 9.77439 151.799 9.7051 151.769 9.61503C151.724 9.53189 151.702 9.44875 151.709 9.35175L151.739 9.17161C151.776 9.05383 151.836 8.95683 151.925 8.87369L152.074 8.76976C152.186 8.7074 152.312 8.67969 152.446 8.67969C152.551 8.67969 152.64 8.69354 152.729 8.73512C152.819 8.76283 152.9 8.81133 152.967 8.87369C153.042 8.93604 153.087 9.00533 153.116 9.0954C153.161 9.17854 153.183 9.26168 153.176 9.35868L153.146 9.53882C153.109 9.6566 153.049 9.7536 152.96 9.83674L152.811 9.94067C152.699 10.003 152.573 10.0307 152.439 10.0307Z" fill="#5584C9"/>
</g>
<g opacity="0.35">
<path d="M273.561 9.22664C272.445 9.22664 272.445 7.6123 273.561 7.6123C274.678 7.6123 274.678 9.22664 273.561 9.22664Z" fill="#5584C9"/>
<path d="M222.51 13.8826C222.041 13.8826 222.041 13.2036 222.51 13.2036C222.979 13.2036 222.979 13.8826 222.51 13.8826Z" fill="#5584C9"/>
<path d="M157.449 7.09281C156.385 7.09281 156.385 5.55469 157.449 5.55469C158.514 5.55469 158.514 7.09281 157.449 7.09281Z" fill="#5584C9"/>
<path d="M24.9447 7.74423C24.9447 7.74423 25.0117 7.74423 25.0489 7.7373C25.1531 7.7373 25.2499 7.75116 25.3393 7.79966C25.436 7.82738 25.5104 7.87588 25.5774 7.94516L25.6966 8.08373C25.7636 8.19458 25.8008 8.31237 25.8008 8.43708C25.8008 8.47172 25.8008 8.49944 25.7933 8.53408L25.7635 8.74194L25.6817 8.929C25.6296 9.01907 25.5551 9.09529 25.4658 9.15072C25.4137 9.19922 25.3541 9.23386 25.2797 9.25464C25.2127 9.28929 25.1457 9.31007 25.0638 9.31007C24.9894 9.33086 24.9149 9.33086 24.8405 9.31007C24.7661 9.31007 24.6916 9.28929 24.6246 9.25464C24.5204 9.22 24.4311 9.1715 24.3492 9.09529L24.2152 8.93593L24.1333 8.74886L24.1035 8.54101L24.1333 8.33315L24.2152 8.14609C24.2673 8.05602 24.3417 7.9798 24.4311 7.92437C24.4832 7.87587 24.5427 7.84123 24.6172 7.82045C24.7214 7.77195 24.8256 7.75116 24.9447 7.75116V7.74423Z" fill="#5584C9"/>
<path d="M31.0713 10.4944C30.4534 10.4944 30.4534 9.60059 31.0713 9.60059C31.6891 9.60059 31.6891 10.4944 31.0713 10.4944Z" fill="#5584C9"/>
<path d="M253.544 14.3746C253.038 14.3746 253.038 13.6401 253.544 13.6401C254.05 13.6401 254.05 14.3746 253.544 14.3746Z" fill="#5584C9"/>
<path d="M112.398 6.19905C111.601 6.19905 111.594 5.04199 112.398 5.04199C113.201 5.04199 113.201 6.19905 112.398 6.19905Z" fill="#5584C9"/>
<path d="M73.3608 20.3885C72.9142 20.3885 72.9142 19.7441 73.3608 19.7441C73.8075 19.7441 73.8075 20.3885 73.3608 20.3885Z" fill="#5584C9"/>
<path d="M69.356 17.1388C68.8945 17.1388 68.8945 16.4736 69.356 16.4736C69.8175 16.4736 69.8175 17.1388 69.356 17.1388Z" fill="#5584C9"/>
</g>
</svg>
